# xmcd
#
# Track frame offsets:
#	183
#	11865
#	24500
#	37238
#	50440
#	63923
#	76545
#	89890
#	102925
#	113883
#	126753
#	137590
#	155205
#	168378
#	181783
#	194688
#	209348
#	232318
#
# Disc length: 3264 seconds
#
# Revision: 0
# Processed by: cddbd v1.5PL3 Copyright (c) Steve Scherf et al.
# Submitted via: dBpowerAMP V4.0
#
DISCID=030cbe12
DTITLE=Muddy Waters - Best Of 1947-1972
DYEAR=1995
DGENRE=Blues
TTITLE0=Gypsy Woman
TTITLE1=Train Fare Home<Blues
TTITLE2=Little Geneva
TTITLE3=Lousiana Blues
TTITLE4=She Moves On
TTITLE5=Hoochie Coochie Man
TTITLE6=Mannish Boy
TTITLE7=Forty Days And Forty Nights
TTITLE8=Diamonds At Your Feet
TTITLE9=I Love The Life I Live, I Live The Life I Love
TTITLE10=Look What You've Done
TTITLE11=Blues Before Sunrise
TTITLE12=Southbound Train
TTITLE13=I Feel So Good
TTITLE14=You Don't Have To Go
TTITLE15=Good Morning Little Schoolgirl
TTITLE16=Who's Gonna Be Your Sweet Man When I'm Gone
TTITLE17=Can't Get No Grindin
EXTD=
EXTT0=
EXTT1=
EXTT2=
EXTT3=
EXTT4=
EXTT5=
EXTT6=
EXTT7=
EXTT8=
EXTT9=
EXTT10=
EXTT11=
EXTT12=
EXTT13=
EXTT14=
EXTT15=
EXTT16=
EXTT17=
PLAYORDER=
